<svg width="2318" height="2110" xmlns="http://www.w3.org/2000/svg" preserveAspectRatio="xMidYMid meet">

 <g>
  <title>background</title>
  <rect fill="none" id="canvas_background" height="402" width="582" y="-1" x="-1"/>
 </g>
 <g>
  <title>Layer 1</title>
  <g id="svg_1" transform="matrix(0.1, 0, 0, -0.1, 0, 2110)">
   <path fill="#1a4ce0" id="svg_2" d="m14241,20514c-96,-16 -238,-63 -326,-106c-166,-83 -352,-241 -442,-373c-22,-33 -476,-823 -1007,-1755c-532,-932 -986,-1726 -1009,-1764l-42,-70l-215,-59c-249,-68 -4098,-1119 -6855,-1872c-1039,-283 -1930,-527 -1980,-542c-560,-163 -915,-701 -851,-1288c4,-39 182,-706 403,-1515c217,-795 395,-1452 395,-1460c1,-8 -235,-430 -525,-937s-532,-934 -537,-949c-35,-90 -27,-221 18,-314c54,-111 58,-114 1054,-683l924,-527l494,-1808c593,-2173 569,-2088 615,-2187c192,-416 611,-685 1070,-687c72,0 159,5 195,11c53,10 1788,481 3590,975l345,95l1255,-717c690,-394 1545,-882 1900,-1084c354,-203 670,-378 702,-390c83,-30 209,-23 292,17c119,58 96,21 933,1485c426,745 800,1402 831,1460l57,105l0,105c0,97 -2,110 -31,170c-45,94 -100,143 -277,245c-86,50 -155,94 -154,99c4,13 3399,938 3407,929c4,-4 125,-442 269,-973c145,-531 273,-987 286,-1015c55,-123 185,-211 326,-222c72,-5 89,-1 704,167c347,94 664,183 705,197c346,118 682,410 868,753c76,141 144,347 172,525c16,102 14,344 -4,460c-8,55 -73,314 -145,575c-1847,6768 -3067,11222 -3090,11287c-83,224 -203,415 -366,579c-292,293 -655,453 -1066,471c-166,7 -292,-5 -444,-44c-79,-19 -885,-238 -957,-259c-10,-3 -18,-1 -18,5s53,104 119,218c65,115 127,224 138,243s62,109 113,199c163,287 212,446 212,690c0,124 -7,182 -38,298c-38,143 -84,243 -168,368c-95,139 -222,258 -371,347c-122,73 -682,391 -735,418c-214,107 -488,146 -739,104zm336,-790c21,-9 201,-109 401,-222c240,-137 379,-222 409,-251c26,-25 59,-72 77,-110c28,-60 31,-75 31,-161s-3,-101 -31,-160c-27,-55 -578,-1027 -589,-1039c-3,-2 -1327,751 -1343,764c-1,1 130,233 292,516c185,325 311,533 340,565c46,52 103,86 186,110c55,16 174,10 227,-12zm-920,-2165c279,-160 577,-330 660,-377c84,-48 153,-93 153,-100s-272,-489 -604,-1070c-1075,-1882 -1975,-3460 -1997,-3499c-12,-21 -38,-67 -59,-103s-51,-88 -66,-116c-183,-325 -351,-614 -358,-614c-11,0 -1306,738 -1325,756c-11,10 191,371 1222,2176c679,1189 1373,2405 1542,2701c168,295 310,537 315,537s237,-131 517,-291zm3545,-433c297,-58 535,-267 624,-551c39,-127 2802,-10250 2798,-10254c-1,-2 -54,6 -117,18c-201,37 -390,38 -597,1c-30,-5 -1357,-365 -2948,-800l-2893,-790l-1377,786c-1444,825 -3139,1793 -5742,3279c-855,488 -2000,1142 -2545,1453s-1017,577 -1049,590c-52,21 -71,24 -150,20c-74,-4 -102,-10 -151,-34c-58,-28 -141,-99 -163,-139c-7,-13 -14,-16 -20,-10c-5,6 -135,476 -290,1045c-305,1121 -300,1096 -262,1211c44,130 125,212 255,258c97,34 8267,2262 8273,2256c3,-3 -1,-18 -10,-33c-106,-183 -1671,-2928 -1686,-2959c-36,-70 -46,-135 -57,-373c-3,-69 -8,-154 -10,-190c-3,-36 -9,-155 -15,-265s-12,-234 -15,-275s-7,-124 -10,-185c-3,-60 -8,-139 -10,-175c-3,-36 -7,-117 -10,-180s-8,-149 -10,-190c-3,-41 -10,-160 -15,-265c-5,-104 -12,-224 -15,-265c-2,-41 -7,-122 -10,-180s-8,-144 -11,-192c-7,-110 8,-182 57,-262c73,-122 191,-189 334,-189c75,-1 184,28 1620,421c847,233 2152,589 2900,793s1361,372 1363,374c1,1 -44,173 -101,381c-93,339 -106,379 -123,376c-19,-3 -3236,-880 -3326,-907c-63,-18 -55,0 19,46c82,49 152,122 205,214c25,44 336,589 690,1210c355,622 874,1531 1153,2020c280,490 513,899 519,910s204,358 439,770l429,750l871,238c480,131 895,242 922,246c80,14 187,12 267,-3zm-6432,-6021c-1,-10 -950,-645 -965,-645c-7,0 -4,73 10,295c2,39 7,115 10,170s10,181 15,280c6,99 13,230 16,290c3,61 7,115 9,122c4,13 905,-496 905,-512zm-6736,-1536c358,-204 657,-377 663,-383c10,-9 -33,-91 -198,-381c-116,-204 -249,-437 -295,-519c-47,-82 -83,-154 -81,-160c3,-6 156,-97 341,-203c332,-189 337,-191 350,-170s150,262 439,772c72,127 136,236 143,244c11,12 116,-45 643,-345c347,-197 631,-362 631,-366s-130,-237 -290,-516c-159,-280 -292,-516 -295,-524c-5,-12 73,-61 329,-208c185,-105 341,-190 347,-188s138,228 294,502c157,274 291,508 298,520c14,20 33,10 645,-339c347,-198 631,-365 632,-371c0,-6 -131,-240 -291,-520c-161,-280 -292,-515 -293,-522c-1,-10 674,-406 680,-399c1,1 83,144 181,317c99,173 233,408 298,523c65,114 122,207 126,207s236,-131 516,-291c279,-161 524,-301 543,-312c193,-108 209,-120 198,-141c-6,-12 -134,-235 -284,-497c-149,-262 -279,-490 -288,-506l-15,-31l312,-178c172,-98 326,-186 343,-196l31,-18l261,457c143,252 277,488 298,525c22,37 42,68 47,68c4,0 256,-143 560,-317c303,-174 587,-336 629,-360l78,-44l-19,-37c-11,-20 -146,-257 -300,-527c-154,-269 -279,-490 -278,-491c6,-6 673,-386 680,-387c5,-1 141,230 303,513s298,518 302,522c5,5 82,-34 173,-86c191,-109 580,-331 624,-356c272,-154 532,-303 539,-310c4,-4 -228,-421 -516,-927c-289,-505 -558,-978 -599,-1050c-55,-99 -78,-132 -91,-129c-9,2 -272,150 -585,328c-312,179 -1646,941 -2963,1693s-2440,1393 -2495,1425s-118,68 -140,80s-85,48 -140,80c-109,63 -3957,2260 -4015,2293c-19,10 -64,36 -100,57s-83,48 -105,60s-134,77 -250,143c-115,66 -226,129 -245,140c-142,79 -171,99 -166,114c4,8 143,255 311,548c167,294 314,551 326,572s38,67 59,103s51,88 66,116c164,293 431,754 438,754c4,0 301,-167 660,-371zm2404,-5091c1168,-667 2123,-1217 2123,-1223c0,-5 -678,-196 -1508,-423c-1496,-411 -1509,-414 -1608,-415c-82,-1 -110,3 -155,21c-122,49 -204,147 -246,293c-80,277 -820,3000 -817,3003c5,5 -254,152 2211,-1256zm13948,1083c164,-40 286,-106 392,-213c125,-126 188,-243 229,-423c23,-103 14,-275 -21,-378c-90,-269 -270,-452 -523,-530c-133,-41 -802,-221 -806,-216c-13,15 -418,1532 -411,1539c11,9 729,206 824,225c98,20 223,18 316,-4z"/>
   <path fill="#1a4ce0" id="svg_3" d="m17725,12375c-268,-74 -370,-106 -369,-116c2,-24 196,-734 203,-742c5,-5 742,187 759,199c7,4 -205,758 -214,760c-5,1 -175,-44 -379,-101z"/>
   <path fill="#1a4ce0" id="svg_4" d="m16188,11956c-202,-56 -370,-104 -373,-107c-5,-5 192,-747 201,-758c4,-5 747,198 756,207s-195,755 -208,758c-5,1 -174,-44 -376,-100z"/>
  </g>
 </g>
</svg>