<svg height="812" preserveAspectRatio="xMidYMid meet" width="2446" xmlns="http://www.w3.org/2000/svg"><rect id="backgroundrect" width="100%" height="100%" x="0" y="0" fill="none" stroke="none" style="" class=""/><g class="currentLayer" style=""><title>Layer 1</title><g id="svg_1" class="" fill-opacity="1" fill="#1a4ce0"><path d="m523.6807541698217,0.7045230865478516 c-7.200000286102295,1.8000000715255737 -16.200000762939453,7.200000286102295 -22.30000114440918,13.40000057220459 c-5.300000190734863,5.400000095367432 -11,14.800000190734863 -47,77.9000015258789 c-22.600000381469727,39.60000228881836 -41.70000076293945,72.20000457763672 -42.5,72.70000457763672 c-0.800000011920929,0.4000000059604645 -84.30000305175781,23.399999618530273 -185.5,51 c-136.10000610351562,37.10000228881836 -185.60000610351562,51 -190,53.29999923706055 c-11.90000057220459,6.200000286102295 -22.100000381469727,19.80000114440918 -24.5,32.79999923706055 c-2.1000001430511475,11.199999809265137 -1.600000023841858,13.800000190734863 15.100000381469727,75.20000457763672 c8.90000057220459,32.60000228881836 16.30000114440918,59.70000076293945 16.600000381469727,60.20000076293945 c0.20000000298023224,0.6000000238418579 -9.40000057220459,18.100000381469727 -21.399999618530273,39 c-18.899999618530273,33.10000228881836 -21.700000762939453,38.70000076293945 -22.100000381469727,43.10000228881836 c-0.5,6.099999904632568 1.3000000715255737,10.199999809265137 6,13.699999809265137 c1.8000000715255737,1.399999976158142 15.5,9.300000190734863 30.30000114440918,17.700000762939453 c14.90000057220459,8.40000057220459 31.100000381469727,17.700000762939453 36.10000228881836,20.600000381469727 l9,5.300000190734863 l21.80000114440918,79.5999984741211 c12,43.79999923706055 22.700000762939453,81.30000305175781 23.80000114440918,83.5 c6.300000190734863,11.699999809265137 16.600000381469727,20.399999618530273 28.899999618530273,24.100000381469727 c13.90000057220459,4.200000286102295 15.600000381469727,3.9000000953674316 102.5,-19.899999618530273 c42.400001525878906,-11.699999809265137 77.5999984741211,-21.200000762939453 78.20000457763672,-21.200000762939453 s35.79999923706055,19.899999618530273 78.4000015258789,44.20000076293945 c68.70000457763672,39.20000076293945 77.9000015258789,44.20000076293945 82.4000015258789,44.60000228881836 c8.300000190734863,0.699999988079071 12.40000057220459,-2.4000000953674316 18.899999618530273,-14.300000190734863 c1.5,-2.799999952316284 4.400000095367432,-7.900000095367432 6.5,-11.5 s4.800000190734863,-8.300000190734863 6,-10.5 s7.700000286102295,-13.5 14.300000190734863,-25 c6.599999904632568,-11.600000381469727 13,-22.80000114440918 14.300000190734863,-25 c1.2000000476837158,-2.200000047683716 6.400000095367432,-11.199999809265137 11.40000057220459,-20 c8,-13.699999809265137 9.300000190734863,-16.80000114440918 9.699999809265137,-21.5 c0.6000000238418579,-7.800000190734863 -1.600000023841858,-11.40000057220459 -10.300000190734863,-16.80000114440918 c-3.799999952316284,-2.299999952316284 -7,-4.599999904632568 -7.200000286102295,-5 c-0.20000000298023224,-0.800000011920929 136.90000915527344,-38.400001525878906 137.60000610351562,-37.79999923706055 c0.20000000298023224,0.30000001192092896 5.300000190734863,18.5 11.40000057220459,40.70000076293945 c6,22.100000381469727 11.699999809265137,41.29999923706055 12.600000381469727,42.5 c2.700000047683716,3.799999952316284 9.699999809265137,6.700000286102295 14.199999809265137,6 c9,-1.399999976158142 56,-15 61.60000228881836,-17.80000114440918 c22.600000381469727,-11.199999809265137 36.29999923706055,-34.5 35.20000076293945,-59.79999923706055 c-0.4000000059604645,-8.800000190734863 -5.099999904632568,-26.30000114440918 -65.20000457763672,-246.5 c-35.70000076293945,-130.40000915527344 -65.9000015258789,-239.8000030517578 -67.0999984741211,-243.1999969482422 c-6.800000190734863,-17.80000114440918 -22.100000381469727,-32.29999923706055 -41,-38.5 c-5.700000286102295,-1.8000000715255737 -9.199999809265137,-2.200000047683716 -18.5,-2.200000047683716 c-10.90000057220459,0 -12.600000381469727,0.30000001192092896 -32.79999923706055,5.800000190734863 c-11.699999809265137,3.200000047683716 -21.5,5.599999904632568 -21.80000114440918,5.300000190734863 c-0.30000001192092896,-0.20000000298023224 3.799999952316284,-7.800000190734863 9,-16.80000114440918 c12.100000381469727,-21.100000381469727 13.90000057220459,-26.30000114440918 13.40000057220459,-38.900001525878906 c-0.699999988079071,-15.300000190734863 -6,-26.200000762939453 -17,-35 c-6.900000095367432,-5.5 -34.29999923706055,-21.100000381469727 -41.29999923706055,-23.600000381469727 c-5.800000190734863,-2 -22,-2.799999952316284 -27.700000762939453,-1.399999976158142 zm31.399999618530273,39.10000228881836 c7.800000190734863,4.400000095367432 15.5,9 17,10.100000381469727 c4.5,3.1000001430511475 6.200000286102295,7.599999904632568 5.900000095367432,14.90000057220459 c-0.10000000149011612,2.299999952316284 -21.700000762939453,41.70000076293945 -24.600000381469727,44.70000076293945 c-1,1.100000023841858 -6.099999904632568,-1.5 -27.80000114440918,-13.90000057220459 c-14.699999809265137,-8.40000057220459 -26.700000762939453,-15.699999809265137 -26.700000762939453,-16.200000762939453 c0,-1.7000000476837158 22.200000762939453,-40.10000228881836 24.899999618530273,-43.10000228881836 c7.099999904632568,-7.800000190734863 12.5,-7.200000286102295 31.30000114440918,3.5 zm-39.70000076293945,86.70000457763672 c11.600000381469727,6.599999904632568 21,12.40000057220459 21,12.800000190734863 c0,1.899999976158142 -124.0999984741211,218.3000030517578 -125.20000457763672,218.40000915527344 c-1.600000023841858,0 -54.400001525878906,-30.200000762939453 -54.10000228881836,-31 c0.20000000298023224,-0.4000000059604645 28.399999618530273,-49.79999923706055 62.70000076293945,-109.9000015258789 l62.400001525878906,-109.0999984741211 l6.099999904632568,3.4000000953674316 c3.4000000953674316,1.899999976158142 15.600000381469727,8.800000190734863 27.100000381469727,15.40000057220459 zm139.6999969482422,13.40000057220459 c6.300000190734863,2.9000000953674316 12.600000381469727,9 15.5,15.100000381469727 c2.1000001430511475,4.300000190734863 115.80000305175781,419.5 115.0999984741211,420.20001220703125 c-0.20000000298023224,0.30000001192092896 -3.5,-0.10000000149011612 -7.300000190734863,-0.699999988079071 c-3.9000000953674316,-0.6000000238418579 -10.199999809265137,-0.800000011920929 -14,-0.5 c-4.900000095367432,0.30000001192092896 -43.29999923706055,10.40000057220459 -124.70000457763672,32.60000228881836 c-64.70000457763672,17.700000762939453 -118.30000305175781,32.10000228881836 -119.0999984741211,32.10000228881836 c-1.8000000715255737,0 29.100000381469727,17.600000381469727 -379.6000061035156,-215.8000030517578 c-29.399999618530273,-16.700000762939453 -55,-30.899999618530273 -56.900001525878906,-31.399999618530273 c-5.099999904632568,-1.399999976158142 -9.800000190734863,-0.10000000149011612 -14.199999809265137,3.799999952316284 l-3.9000000953674316,3.5 l-1.5,-5.300000190734863 c-9,-31.5 -21.600000381469727,-79.70000457763672 -21.600000381469727,-82.70000457763672 c0,-4.5 3.1000001430511475,-9.600000381469727 7.700000286102295,-12.699999809265137 c1.7000000476837158,-1.100000023841858 7.599999904632568,-3.299999952316284 13,-4.800000190734863 c67.5,-18.700000762939453 324.70001220703125,-88.5999984741211 325.3999938964844,-88.4000015258789 c0.5,0.20000000298023224 -14.699999809265137,27.5 -33.70000076293945,60.79999923706055 c-19.100000381469727,33.29999923706055 -35,61.79999923706055 -35.400001525878906,63.5 c-0.5,1.600000023841858 -1.100000023841858,8.40000057220459 -1.399999976158142,15 c-1.5,27.5 -2.6000001430511475,48.400001525878906 -3.1000001430511475,54.5 c-0.800000011920929,11.600000381469727 -1.899999976158142,37.400001525878906 -1.8000000715255737,41.79999923706055 c0.20000000298023224,7.5 7.200000286102295,14.199999809265137 15.100000381469727,14.40000057220459 c3.700000047683716,0.10000000149011612 235.90000915527344,-62.70000076293945 237.60000610351562,-64.30000305175781 c1.3000000715255737,-1.2000000476837158 -6.599999904632568,-29.899999618530273 -8.300000190734863,-29.899999618530273 c-0.699999988079071,0 -31,8.100000381469727 -67.30000305175781,18 c-36.20000076293945,9.90000057220459 -66.4000015258789,18 -67,18 c-0.5,0 1,-1.899999976158142 3.5,-4.300000190734863 c3.6000001430511475,-3.299999952316284 12.90000057220459,-18.80000114440918 45.29999923706055,-75.70000457763672 c22.399999618530273,-39.29999923706055 41.60000228881836,-73.0999984741211 42.70000076293945,-75 c19.5,-34.70000076293945 47.29999923706055,-82.9000015258789 48.60000228881836,-84.0999984741211 c1.2000000476837158,-1.2000000476837158 51.79999923706055,-15.5 71.5999984741211,-20.30000114440918 c4.599999904632568,-1.100000023841858 14.40000057220459,0.20000000298023224 19.700000762939453,2.6000001430511475 zm-286.20001220703125,231.10000610351562 c9,5.200000286102295 16.600000381469727,10 16.80000114440918,10.5 c0.30000001192092896,1 -37.70000076293945,26.700000762939453 -38.400001525878906,25.899999618530273 c-0.30000001192092896,-0.20000000298023224 0,-8.5 0.6000000238418579,-18.30000114440918 c0.5,-9.90000057220459 1.100000023841858,-19.899999618530273 1.2000000476837158,-22.399999618530273 c0.20000000298023224,-5.200000286102295 0.6000000238418579,-6.300000190734863 2.200000047683716,-5.700000286102295 c0.6000000238418579,0.30000001192092896 8.5,4.800000190734863 17.600000381469727,10 zm-256.20001220703125,72.30000305175781 c14.100000381469727,8.100000381469727 26.200000762939453,15.199999809265137 26.899999618530273,15.800000190734863 c0.800000011920929,0.800000011920929 -1.7000000476837158,6.099999904632568 -10.40000057220459,21.100000381469727 c-6.300000190734863,11 -11.699999809265137,20.5 -12,21.100000381469727 c-0.5,1.399999976158142 26.600000381469727,17 27.600000381469727,15.800000190734863 c0.4000000059604645,-0.5 5.800000190734863,-9.90000057220459 12.100000381469727,-20.899999618530273 c6.200000286102295,-11 11.40000057220459,-20.100000381469727 11.600000381469727,-20.30000114440918 c0.20000000298023224,-0.4000000059604645 46.79999923706055,25.899999618530273 49.900001525878906,28.200000762939453 c1.8000000715255737,1.3000000715255737 1.2000000476837158,2.6000001430511475 -9.800000190734863,21.80000114440918 c-6.400000095367432,11.199999809265137 -11.699999809265137,20.899999618530273 -11.699999809265137,21.399999618530273 c0,0.9000000357627869 25,15.5 26.600000381469727,15.600000381469727 c0.5,0 5.900000095367432,-8.90000057220459 12.100000381469727,-19.80000114440918 c6.200000286102295,-11 11.800000190734863,-20.30000114440918 12.5,-20.700000762939453 c0.9000000357627869,-0.6000000238418579 10.100000381469727,4.099999904632568 26.30000114440918,13.300000190734863 c13.800000190734863,7.800000190734863 25.200000762939453,14.300000190734863 25.399999618530273,14.5 s-4.599999904632568,9.100000381469727 -10.600000381469727,19.700000762939453 c-6.099999904632568,10.600000381469727 -11.5,20.30000114440918 -12.100000381469727,21.5 c-1.100000023841858,2 -0.4000000059604645,2.6000001430511475 12.40000057220459,9.699999809265137 c7.400000095367432,4.200000286102295 13.600000381469727,7.599999904632568 13.699999809265137,7.599999904632568 c0.20000000298023224,0 5.700000286102295,-9.40000057220459 12.300000190734863,-21 c8.699999809265137,-15.40000057220459 12.300000190734863,-20.80000114440918 13.40000057220459,-20.399999618530273 c3.9000000953674316,1.399999976158142 50,28 50,28.899999618530273 c0,0.6000000238418579 -5.200000286102295,10.100000381469727 -11.5,21.200000762939453 c-6.300000190734863,11.199999809265137 -11.5,20.600000381469727 -11.5,21 c0,0.800000011920929 25.399999618530273,15.300000190734863 26.700000762939453,15.300000190734863 c0.5,0 6,-9.100000381469727 12.300000190734863,-20.100000381469727 c6.300000190734863,-11.100000381469727 12.100000381469727,-20.399999618530273 12.699999809265137,-20.600000381469727 c0.9000000357627869,-0.4000000059604645 49.10000228881836,26.200000762939453 51.20000076293945,28.30000114440918 c0.20000000298023224,0.20000000298023224 -5,9.800000190734863 -11.600000381469727,21.399999618530273 c-8.5,14.699999809265137 -11.699999809265137,21.200000762939453 -10.90000057220459,21.899999618530273 c1,0.800000011920929 18.80000114440918,11.100000381469727 24.200000762939453,13.90000057220459 c1.899999976158142,1 2.799999952316284,-0.30000001192092896 14,-19.80000114440918 c6.5,-11.5 12.300000190734863,-21 12.800000190734863,-21 c1.7000000476837158,0 53.60000228881836,30.200000762939453 53.60000228881836,31.200000762939453 c0,0.5 -8.40000057220459,15.600000381469727 -18.600000381469727,33.5 s-19.700000762939453,34.60000228881836 -21.100000381469727,37 c-6.099999904632568,11 -8.100000381469727,13.800000190734863 -9.600000381469727,13.699999809265137 c-1.5,-0.20000000298023224 -71.4000015258789,-39.900001525878906 -367.20001220703125,-209 c-61.20000076293945,-34.900001525878906 -86,-49.60000228881836 -85.9000015258789,-50.70000076293945 c0.20000000298023224,-1.600000023841858 47.20000076293945,-84.70000457763672 48,-84.70000457763672 c0.20000000298023224,0 12,6.599999904632568 26.200000762939453,14.600000381469727 zm97.5,206.40000915527344 c47.70000076293945,27.200000762939453 86.70000457763672,49.70000076293945 86.70000457763672,50 c0,1.2000000476837158 -123.70000457763672,34.29999923706055 -127.80000305175781,34.29999923706055 c-4.5,-0.10000000149011612 -9.40000057220459,-2.700000047683716 -12.40000057220459,-6.700000286102295 c-0.9000000357627869,-1.2000000476837158 -9.100000381469727,-29.700000762939453 -18.30000114440918,-63.20000076293945 c-9.100000381469727,-33.5 -16.899999618530273,-61.70000076293945 -17.200000762939453,-62.70000076293945 c-0.30000001192092896,-1.3000000715255737 0,-1.8000000715255737 0.9000000357627869,-1.5 c0.800000011920929,0.10000000149011612 40.5,22.600000381469727 88.0999984741211,49.79999923706055 zm574.6000366210938,-40 c10.90000057220459,5.800000190734863 17.100000381469727,15.90000057220459 17.100000381469727,27.899999618530273 c0,11.300000190734863 -4.700000286102295,20.5 -14,27.30000114440918 c-3.4000000953674316,2.5 -28,10.40000057220459 -38.29999923706055,12.300000190734863 l-3.200000047683716,0.6000000238418579 l-8.40000057220459,-31.100000381469727 c-4.599999904632568,-17 -8.199999809265137,-31.200000762939453 -8,-31.399999618530273 c0.30000001192092896,-0.30000001192092896 22.5,-6.5 32.400001525878906,-9 c1.100000023841858,-0.30000001192092896 5.200000286102295,-0.4000000059604645 9.100000381469727,-0.20000000298023224 c5.700000286102295,0.20000000298023224 8.199999809265137,0.9000000357627869 13.300000190734863,3.6000001430511475 z" stroke-width="0" id="svg_2" fill="#1a4ce0"/><path d="m668.6807541698217,330.0045404434204 c-9.300000190734863,2.5 -14.800000190734863,4.5 -14.800000190734863,5.300000190734863 c0,2.1000001430511475 7.099999904632568,27.80000114440918 7.900000095367432,28.700000762939453 c0.800000011920929,0.800000011920929 28.5,-6.400000095367432 29.80000114440918,-7.700000286102295 c0.6000000238418579,-0.6000000238418579 -6.5,-28.600000381469727 -7.599999904632568,-29.700000762939453 c-0.30000001192092896,-0.30000001192092896 -7.200000286102295,1.2000000476837158 -15.300000190734863,3.4000000953674316 z" stroke-width="0" id="svg_3" fill="#1a4ce0"/><path d="m606.3807053416967,347.20455265045166 c-8.199999809265137,2.299999952316284 -15,4.599999904632568 -14.90000057220459,5.099999904632568 c0.30000001192092896,2.700000047683716 7.900000095367432,29.399999618530273 8.300000190734863,29.399999618530273 c1.100000023841858,0 29.30000114440918,-7.800000190734863 29.700000762939453,-8.199999809265137 c0.30000001192092896,-0.4000000059604645 -7.5,-30.100000381469727 -7.900000095367432,-30.399999618530273 c-0.10000000149011612,-0.10000000149011612 -6.900000095367432,1.8000000715255737 -15.199999809265137,4.099999904632568 z" stroke-width="0" id="svg_4" fill="#1a4ce0"/><path d="m1123.880766376853,405.70455265045166 v23.899999618530273 l15.300000190734863,0.30000001192092896 l15.199999809265137,0.30000001192092896 v120 v120 l-15.199999809265137,0.30000001192092896 l-15.300000190734863,0.30000001192092896 v23.399999618530273 v23.5 h57 h57 v-23.5 v-23.5 h-16 h-16 l-0.20000000298023224,-144.3000030517578 l-0.30000001192092896,-144.1999969482422 l-40.70000076293945,-0.30000001192092896 l-40.79999923706055,-0.20000000298023224 z" stroke-width="0" id="svg_5" fill="#1a4ce0"/><path d="m1908.880766376853,405.70455265045166 v23.899999618530273 l14.300000190734863,0.30000001192092896 l14.199999809265137,0.30000001192092896 l0.30000001192092896,32.400001525878906 c0.20000000298023224,30.5 0.10000000149011612,32.29999923706055 -1.5,31.80000114440918 c-1,-0.30000001192092896 -4.800000190734863,-1.7000000476837158 -8.5,-3.1000001430511475 c-11.90000057220459,-4.5 -22.399999618530273,-5.900000095367432 -40.79999923706055,-5.400000095367432 c-12.100000381469727,0.4000000059604645 -18.80000114440918,1.100000023841858 -25,2.6000001430511475 c-51.5,12.699999809265137 -82.0999984741211,55.400001525878906 -82,114.30000305175781 c0.10000000149011612,42.70000076293945 15.5,78.30000305175781 42.900001525878906,99.0999984741211 c9.199999809265137,6.900000095367432 24.700000762939453,14.40000057220459 36.60000228881836,17.5 c8.90000057220459,2.299999952316284 12,2.6000001430511475 27.5,2.700000047683716 c20.5,0.10000000149011612 27.700000762939453,-1.399999976158142 41.900001525878906,-9 c4.599999904632568,-2.4000000953674316 8.5,-4.400000095367432 8.699999809265137,-4.400000095367432 s0.4000000059604645,2 0.4000000059604645,4.5 v4.5 h41.5 h41.5 v-23.5 v-23.399999618530273 l-15.699999809265137,-0.30000001192092896 l-15.800000190734863,-0.30000001192092896 l-0.5,-144 l-0.5,-144 l-39.70000076293945,-0.30000001192092896 l-39.79999923706055,-0.20000000298023224 zm0.20000000298023224,127.4000015258789 c9.100000381469727,1.8000000715255737 19,5.400000095367432 24.600000381469727,8.90000057220459 l4.200000286102295,2.700000047683716 v58 v58 l-5.200000286102295,4.099999904632568 c-6.200000286102295,4.900000095367432 -15.199999809265137,9.199999809265137 -22.600000381469727,10.800000190734863 c-7.700000286102295,1.600000023841858 -25.700000762939453,1.399999976158142 -32.70000076293945,-0.4000000059604645 c-15.5,-4 -27.80000114440918,-13.699999809265137 -35.20000076293945,-28 c-13.40000057220459,-25.80000114440918 -13.199999809265137,-64.20000457763672 0.4000000059604645,-87.5 c7.5,-12.699999809265137 21.100000381469727,-23.100000381469727 34.900001525878906,-26.399999618530273 c7.700000286102295,-1.899999976158142 22.399999618530273,-2 31.600000381469727,-0.20000000298023224 z" stroke-width="0" id="svg_6" fill="#1a4ce0"/><path d="m868.8807053416967,414.60454654693604 v24.100000381469727 h15 h15 v116 v116 h-15 h-15 v23.5 v23.5 h57.5 h57.5 v-23.5 v-23.399999618530273 l-15.699999809265137,-0.30000001192092896 l-15.800000190734863,-0.30000001192092896 v-49 v-49 l34.5,-0.6000000238418579 c36.20000076293945,-0.6000000238418579 40,-1 55,-5.900000095367432 c21.100000381469727,-7.099999904632568 40.5,-21.80000114440918 51.29999923706055,-39.10000228881836 c10.100000381469727,-16.30000114440918 13.300000190734863,-29 12.40000057220459,-50.29999923706055 c-0.699999988079071,-16.200000762939453 -2.1000001430511475,-22.399999618530273 -8.100000381469727,-35.10000228881836 c-11.90000057220459,-24.899999618530273 -31.80000114440918,-39.70000076293945 -64.5999984741211,-47.79999923706055 c-8.199999809265137,-2 -11.40000057220459,-2.1000001430511475 -86.20000457763672,-2.4000000953674316 l-77.80000305175781,-0.4000000059604645 zm147.1999969482422,25.5 c22.600000381469727,4.099999904632568 34.79999923706055,18.600000381469727 34.79999923706055,41.60000228881836 c0,22.100000381469727 -12.199999809265137,37.60000228881836 -33.5,42.5 c-5.099999904632568,1.2000000476837158 -12.5,1.5 -35.70000076293945,1.3000000715255737 l-29.30000114440918,-0.30000001192092896 l-0.30000001192092896,-42 c-0.10000000149011612,-23.100000381469727 0,-42.60000228881836 0.30000001192092896,-43.20000076293945 c0.699999988079071,-1.899999976158142 53.20000076293945,-1.7000000476837158 63.70000076293945,0.10000000149011612 z" stroke-width="0" id="svg_7" fill="#1a4ce0"/><path d="m1332.5808396190405,487.70455265045166 c-19.80000114440918,3.6000001430511475 -29.399999618530273,6.800000190734863 -46.70000076293945,15.699999809265137 c-18.700000762939453,9.600000381469727 -17.80000114440918,6.300000190734863 -8,27 c4.599999904632568,9.800000190734863 8.800000190734863,18.200000762939453 9.199999809265137,18.80000114440918 c0.5,0.6000000238418579 1.899999976158142,0.30000001192092896 3.6000001430511475,-0.800000011920929 c23.399999618530273,-15 61.29999923706055,-21 80.5999984741211,-12.800000190734863 c6.700000286102295,2.9000000953674316 12.90000057220459,9.100000381469727 16.100000381469727,16.30000114440918 c2.4000000953674316,5.200000286102295 2.9000000953674316,7.900000095367432 3.299999952316284,17.600000381469727 l0.5,11.40000057220459 l-9.40000057220459,-0.9000000357627869 c-15.699999809265137,-1.399999976158142 -45.29999923706055,-0.800000011920929 -54.70000076293945,1 c-26.600000381469727,5.300000190734863 -47.20000076293945,17.399999618530273 -58.20000076293945,34.29999923706055 c-7.099999904632568,10.800000190734863 -10.199999809265137,21.30000114440918 -10.800000190734863,35.900001525878906 c-0.5,14.40000057220459 0.800000011920929,21 6.900000095367432,33.400001525878906 c9.40000057220459,19.200000762939453 30.399999618530273,33.79999923706055 54.5,38.10000228881836 c10.600000381469727,1.899999976158142 32,0.800000011920929 40.900001525878906,-2 c7.800000190734863,-2.5 18.899999618530273,-7.800000190734863 25.100000381469727,-12.100000381469727 c2.299999952316284,-1.5 4.400000095367432,-2.5 4.800000190734863,-2.200000047683716 c0.30000001192092896,0.4000000059604645 0.6000000238418579,3 0.6000000238418579,6 v5.300000190734863 h37.5 h37.5 v-23.5 v-23.5 h-12 h-12 v-55.29999923706055 c0,-66.9000015258789 -0.6000000238418579,-72.4000015258789 -9.5,-90.20000457763672 c-7.599999904632568,-15.40000057220459 -18.600000381469727,-25.399999618530273 -35.5,-32.29999923706055 c-11.100000381469727,-4.5 -21.5,-6.300000190734863 -38.5,-6.800000190734863 c-11.90000057220459,-0.30000001192092896 -17.200000762939453,0 -25.80000114440918,1.600000023841858 zm58.10000228881836,152.10000610351562 l0.20000000298023224,19.700000762939453 l-4.900000095367432,4.400000095367432 c-9.699999809265137,8.800000190734863 -28.5,15.800000190734863 -42,15.800000190734863 c-17.100000381469727,-0.10000000149011612 -30.100000381469727,-6.599999904632568 -34.70000076293945,-17.5 c-2.1000001430511475,-5.099999904632568 -2.200000047683716,-16.80000114440918 -0.10000000149011612,-21.700000762939453 c2.5,-5.900000095367432 9,-12.199999809265137 16,-15.40000057220459 c10,-4.5 15.90000057220459,-5.200000286102295 41.70000076293945,-5.099999904632568 l23.5,0.20000000298023224 z" stroke-width="0" id="svg_8" fill="#1a4ce0"/><path d="m2116.7810349315405,487.20455265045166 c-21.30000114440918,3.4000000953674316 -39.29999923706055,9.699999809265137 -57.10000228881836,20.100000381469727 c-4.300000190734863,2.5 -7.800000190734863,5.099999904632568 -7.800000190734863,5.700000286102295 c0,0.699999988079071 3.9000000953674316,9.300000190734863 8.600000381469727,19.30000114440918 l8.600000381469727,18.200000762939453 l5.5,-3.5 c11.5,-7.300000190734863 27.899999618530273,-12.5 46.10000228881836,-14.5 c17.30000114440918,-1.899999976158142 32.10000228881836,1.2000000476837158 40.79999923706055,8.5 c7,6 12,20.80000114440918 11.199999809265137,33.79999923706055 l-0.30000001192092896,5.400000095367432 l-9,-0.5 c-18.80000114440918,-1 -45.70000076293945,-0.4000000059604645 -54.60000228881836,1.3000000715255737 c-40.400001525878906,7.900000095367432 -64.70000457763672,30.5 -68.9000015258789,64.4000015258789 c-1.8000000715255737,14.100000381469727 0,25.100000381469727 6.200000286102295,38.29999923706055 c3.4000000953674316,7.099999904632568 5.5,10 13.300000190734863,17.600000381469727 c7.800000190734863,7.800000190734863 10.600000381469727,9.90000057220459 18.600000381469727,13.699999809265137 c15.40000057220459,7.5 29.899999618530273,10 48.29999923706055,8.40000057220459 c14.100000381469727,-1.2000000476837158 27.700000762939453,-6 39.70000076293945,-14.100000381469727 l5.400000095367432,-3.6000001430511475 l0.30000001192092896,6 l0.30000001192092896,6 h37.400001525878906 h37.5 v-23.5 v-23.399999618530273 l-11.699999809265137,-0.30000001192092896 l-11.800000190734863,-0.30000001192092896 v-57 c0,-63 -0.30000001192092896,-66.70000457763672 -6.599999904632568,-82.30000305175781 c-7.700000286102295,-19.5 -23.600000381469727,-33.70000076293945 -44.400001525878906,-40.20000076293945 c-15.800000190734863,-4.800000190734863 -38,-6.200000286102295 -55.60000228881836,-3.5 zm55.29999923706055,153 l-0.30000001192092896,20 l-4.200000286102295,3.799999952316284 c-5.099999904632568,4.5 -17,10.800000190734863 -25.200000762939453,13.300000190734863 c-8.40000057220459,2.5 -24.899999618530273,2.5 -33,0.10000000149011612 c-8.300000190734863,-2.6000001430511475 -14.699999809265137,-7.400000095367432 -17.600000381469727,-13.40000057220459 c-3.299999952316284,-6.700000286102295 -3.4000000953674316,-18.899999618530273 -0.10000000149011612,-25 c2.9000000953674316,-5.599999904632568 8.40000057220459,-10.800000190734863 14.699999809265137,-13.800000190734863 c8.90000057220459,-4.400000095367432 16.700000762939453,-5.300000190734863 42.400001525878906,-5.200000286102295 l23.5,0.20000000298023224 z" stroke-width="0" id="svg_9" fill="#1a4ce0"/><path d="m1621.380766376853,488.6045160293579 c-12.600000381469727,3 -26.30000114440918,9 -37.400001525878906,16.5 c-2.9000000953674316,2 -5.5,3.6000001430511475 -5.700000286102295,3.6000001430511475 s-0.4000000059604645,-4.099999904632568 -0.4000000059604645,-9 v-9 h-40.5 h-40.5 v24 v24 h15 h15 l-0.20000000298023224,65.70000457763672 l-0.30000001192092896,65.80000305175781 l-14.699999809265137,0.30000001192092896 l-14.800000190734863,0.30000001192092896 v23.399999618530273 v23.5 h56.5 h56.5 v-23.5 v-23.5 h-15 h-15 v-59 v-58.900001525878906 l5.800000190734863,-3.9000000953674316 c8.800000190734863,-6 21.5,-12.100000381469727 29,-13.800000190734863 c4.700000286102295,-1.100000023841858 9.5,-1.5 16.200000762939453,-1.100000023841858 c13,0.6000000238418579 19.700000762939453,3.299999952316284 27.100000381469727,10.600000381469727 c11,11 12.100000381469727,19.100000381469727 11.699999809265137,82.5999984741211 l-0.30000001192092896,43 l-15.199999809265137,0.30000001192092896 l-15.300000190734863,0.30000001192092896 v23.399999618530273 v23.5 h56.5 h56.5 v-23.5 v-23.399999618530273 l-14.699999809265137,-0.30000001192092896 l-14.800000190734863,-0.30000001192092896 l-0.6000000238418579,-58.5 c-0.6000000238418579,-61.400001525878906 -0.699999988079071,-62.29999923706055 -5.400000095367432,-76.5 c-5.700000286102295,-17 -18.5,-32 -33.5,-39.400001525878906 c-12.699999809265137,-6.200000286102295 -21.80000114440918,-8.199999809265137 -39,-8.699999809265137 c-11.699999809265137,-0.30000001192092896 -16,0 -22.5,1.5 z" stroke-width="0" id="svg_10" fill="#1a4ce0"/><path d="m2388.8808884471655,490.30452823638916 c-8.600000381469727,1.8000000715255737 -17.700000762939453,6.400000095367432 -23.899999618530273,12 l-5.099999904632568,4.599999904632568 v-8.100000381469727 v-8.100000381469727 h-40.5 h-40.5 v24 v23.899999618530273 l14.800000190734863,0.30000001192092896 l14.699999809265137,0.30000001192092896 v65.5 v65.5 l-14.699999809265137,0.30000001192092896 l-14.800000190734863,0.30000001192092896 v23.399999618530273 v23.5 h59.5 h59.5 v-23.5 v-23.5 l-18.200000762939453,-0.20000000298023224 l-18.30000114440918,-0.30000001192092896 l-0.30000001192092896,-48.5 c-0.20000000298023224,-41.900001525878906 0,-49.20000076293945 1.399999976158142,-54 c3.799999952316284,-13.300000190734863 12.40000057220459,-24.200000762939453 22.899999618530273,-29.200000762939453 c3.299999952316284,-1.5 6.599999904632568,-2.799999952316284 7.300000190734863,-2.799999952316284 c0.800000011920929,0 1.2000000476837158,1.899999976158142 1.2000000476837158,6 v6 h26 h26 v-28.899999618530273 v-28.80000114440918 l-4.599999904632568,-0.699999988079071 c-8.800000190734863,-1.2000000476837158 -45.5,-0.5 -52.400001525878906,1 z" stroke-width="0" id="svg_11" fill="#1a4ce0"/></g></g></svg>